<svg width="40" height="40" viewBox="0 0 40 40" fill="none" xmlns="http://www.w3.org/2000/svg">
<path d="M38.6668 20C38.6668 30.3093 30.3095 38.6666 20.0002 38.6666C9.69085 38.6666 1.3335 30.3093 1.3335 20C1.3335 9.69066 9.69085 1.33331 20.0002 1.33331C30.3095 1.33331 38.6668 9.69066 38.6668 20Z" fill="#20201D"/>
<path fill-rule="evenodd" clip-rule="evenodd" d="M40 20C40 31.0457 31.0457 40 20 40C8.95431 40 0 31.0457 0 20C0 8.95431 8.95431 0 20 0C31.0457 0 40 8.95431 40 20ZM20 38.6667C30.3093 38.6667 38.6667 30.3093 38.6667 20C38.6667 9.69069 30.3093 1.33333 20 1.33333C9.69069 1.33333 1.33333 9.69069 1.33333 20C1.33333 30.3093 9.69069 38.6667 20 38.6667Z" fill="url(#paint0_linear_4912_5344)"/>
<path d="M27.6152 28.248C27.2142 28.3939 26.7585 28.5352 26.248 28.6719C25.7467 28.8086 25.2181 28.9316 24.6621 29.041C24.1152 29.1504 23.5547 29.237 22.9805 29.3008C22.4154 29.3646 21.8685 29.3965 21.3398 29.3965C20.401 29.3965 19.4896 29.2962 18.6055 29.0957C17.7214 28.9043 16.8874 28.6217 16.1035 28.248C15.3197 27.8652 14.5996 27.3958 13.9434 26.8398C13.2962 26.2839 12.7357 25.6458 12.2617 24.9258C11.7969 24.2057 11.4323 23.4036 11.168 22.5195C10.9128 21.6354 10.7852 20.6784 10.7852 19.6484C10.7852 18.1081 11.0632 16.7181 11.6191 15.4785C12.1842 14.2389 12.959 13.1862 13.9434 12.3203C14.9277 11.4453 16.0944 10.7754 17.4434 10.3105C18.7923 9.83659 20.2598 9.59961 21.8457 9.59961C22.4199 9.59961 22.9941 9.6224 23.5684 9.66797C24.1426 9.71354 24.694 9.77279 25.2227 9.8457C25.7604 9.91862 26.2708 10.0007 26.7539 10.0918C27.237 10.1829 27.6745 10.2786 28.0664 10.3789L27.6699 14.9453H26.8359V14.7266C26.8359 14.2891 26.7767 13.8288 26.6582 13.3457C26.5397 12.8626 26.3073 12.4206 25.9609 12.0195C25.6146 11.6094 25.1178 11.2721 24.4707 11.0078C23.8236 10.7344 22.9759 10.5977 21.9277 10.5977C20.6699 10.5977 19.5124 10.8073 18.4551 11.2266C17.4069 11.6458 16.5 12.2474 15.7344 13.0312C14.9688 13.806 14.3717 14.7539 13.9434 15.875C13.5241 16.987 13.3145 18.2448 13.3145 19.6484C13.3145 20.9518 13.5378 22.1367 13.9844 23.2031C14.431 24.2604 15.0417 25.1673 15.8164 25.9238C16.6003 26.6712 17.5117 27.25 18.5508 27.6602C19.5898 28.0703 20.7064 28.2754 21.9004 28.2754C22.6478 28.2754 23.3086 28.2161 23.8828 28.0977C24.457 27.9701 24.9902 27.7741 25.4824 27.5098C25.5189 26.6257 25.5462 25.9102 25.5645 25.3633C25.5918 24.8164 25.61 24.3835 25.6191 24.0645C25.6374 23.7454 25.6465 23.5176 25.6465 23.3809C25.6556 23.2441 25.6602 23.1484 25.6602 23.0938C25.6602 22.6745 25.6328 22.3372 25.5781 22.082C25.5234 21.8268 25.4414 21.6263 25.332 21.4805C25.2227 21.3346 25.0814 21.2298 24.9082 21.166C24.735 21.1022 24.5345 21.0521 24.3066 21.0156L23.7188 20.9336V20.1543C23.9193 20.1908 24.1608 20.2227 24.4434 20.25C24.6803 20.2773 24.9674 20.3001 25.3047 20.3184C25.651 20.3366 26.0566 20.3457 26.5215 20.3457C26.9863 20.3457 27.4967 20.332 28.0527 20.3047C28.6178 20.2773 29.2376 20.2272 29.9121 20.1543V20.9336C29.6751 20.9518 29.4655 20.9701 29.2832 20.9883C29.1009 21.0065 28.9323 21.0247 28.7773 21.043C28.6315 21.0521 28.4857 21.0612 28.3398 21.0703C28.194 21.0794 28.0345 21.0885 27.8613 21.0977L27.6152 28.248Z" fill="url(#paint1_linear_4912_5344)"/>
<defs>
<linearGradient id="paint0_linear_4912_5344" x1="0.491228" y1="64.5833" x2="60.4864" y2="47.8656" gradientUnits="userSpaceOnUse">
<stop stop-color="#D6A6FF"/>
<stop offset="0.292266" stop-color="#A6C9F8"/>
<stop offset="0.600346" stop-color="#99F3CE"/>
<stop offset="0.747126" stop-color="#F1ECAC"/>
<stop offset="0.972274" stop-color="#EEA5EF"/>
</linearGradient>
<linearGradient id="paint1_linear_4912_5344" x1="0.491228" y1="64.5833" x2="60.4864" y2="47.8656" gradientUnits="userSpaceOnUse">
<stop stop-color="#D6A6FF"/>
<stop offset="0.292266" stop-color="#A6C9F8"/>
<stop offset="0.600346" stop-color="#99F3CE"/>
<stop offset="0.747126" stop-color="#F1ECAC"/>
<stop offset="0.972274" stop-color="#EEA5EF"/>
</linearGradient>
</defs>
</svg>
