<svg width="28" height="28" viewBox="0 0 28 28" fill="none" xmlns="http://www.w3.org/2000/svg">
<path d="M27.0667 14C27.0667 21.2165 21.2165 27.0667 14 27.0667C6.78349 27.0667 0.93335 21.2165 0.93335 14C0.93335 6.78346 6.78349 0.933319 14 0.933319C21.2165 0.933319 27.0667 6.78346 27.0667 14Z" fill="#20201D"/>
<path fill-rule="evenodd" clip-rule="evenodd" d="M28 14C28 21.732 21.732 28 14 28C6.26801 28 0 21.732 0 14C0 6.26801 6.26801 0 14 0C21.732 0 28 6.26801 28 14ZM14 27.0667C21.2165 27.0667 27.0667 21.2165 27.0667 14C27.0667 6.78348 21.2165 0.933333 14 0.933333C6.78348 0.933333 0.933333 6.78348 0.933333 14C0.933333 21.2165 6.78348 27.0667 14 27.0667Z" fill="url(#paint0_linear_4904_5306)"/>
<path d="M6.27668 17V10H7.55668V16H10.6567V17H6.27668ZM12.6133 17L10.0533 10H11.4233L13.4033 15.69L15.3933 10H16.7433L14.1833 17H12.6133ZM17.5755 17V10H18.8555V16H21.9555V17H17.5755Z" fill="url(#paint1_linear_4904_5306)"/>
<defs>
<linearGradient id="paint0_linear_4904_5306" x1="0.343859" y1="45.2083" x2="42.3405" y2="33.5059" gradientUnits="userSpaceOnUse">
<stop stop-color="#D6A6FF"/>
<stop offset="0.292266" stop-color="#A6C9F8"/>
<stop offset="0.600346" stop-color="#99F3CE"/>
<stop offset="0.747126" stop-color="#F1ECAC"/>
<stop offset="0.972274" stop-color="#EEA5EF"/>
</linearGradient>
<linearGradient id="paint1_linear_4904_5306" x1="0.343859" y1="45.2083" x2="42.3405" y2="33.5059" gradientUnits="userSpaceOnUse">
<stop stop-color="#D6A6FF"/>
<stop offset="0.292266" stop-color="#A6C9F8"/>
<stop offset="0.600346" stop-color="#99F3CE"/>
<stop offset="0.747126" stop-color="#F1ECAC"/>
<stop offset="0.972274" stop-color="#EEA5EF"/>
</linearGradient>
</defs>
</svg>
