<svg width="28" height="28" viewBox="0 0 28 28" fill="none" xmlns="http://www.w3.org/2000/svg">
<path d="M27.0667 14C27.0667 21.2165 21.2166 27.0666 14 27.0666C6.78353 27.0666 0.93338 21.2165 0.93338 14C0.93338 6.78346 6.78353 0.933311 14 0.933311C21.2166 0.933311 27.0667 6.78346 27.0667 14Z" fill="#20201D"/>
<path fill-rule="evenodd" clip-rule="evenodd" d="M28 14C28 21.732 21.732 28 14 28C6.26801 28 0 21.732 0 14C0 6.26801 6.26801 0 14 0C21.732 0 28 6.26801 28 14ZM14 27.0667C21.2165 27.0667 27.0667 21.2165 27.0667 14C27.0667 6.78348 21.2165 0.933333 14 0.933333C6.78348 0.933333 0.933333 6.78348 0.933333 14C0.933333 21.2165 6.78348 27.0667 14 27.0667Z" fill="url(#paint0_linear_4904_5187)"/>
<path d="M5.476 19L8.542 14.044L5.434 9.2H7.492L9.69 12.616L11.706 9.2H13.722L10.656 14.128L13.792 19H11.734L9.508 15.542L7.492 19H5.476ZM15.1805 19V9.2H18.8065C19.5905 9.2 20.2392 9.33067 20.7525 9.592C21.2658 9.85333 21.6485 10.2127 21.9005 10.67C22.1525 11.1273 22.2785 11.6407 22.2785 12.21C22.2785 12.7513 22.1572 13.2507 21.9145 13.708C21.6718 14.156 21.2938 14.52 20.7805 14.8C20.2672 15.0707 19.6092 15.206 18.8065 15.206H16.9725V19H15.1805ZM16.9725 13.75H18.6945C19.3198 13.75 19.7678 13.6147 20.0385 13.344C20.3185 13.064 20.4585 12.686 20.4585 12.21C20.4585 11.7247 20.3185 11.3467 20.0385 11.076C19.7678 10.796 19.3198 10.656 18.6945 10.656H16.9725V13.75Z" fill="url(#paint1_linear_4904_5187)"/>
<defs>
<linearGradient id="paint0_linear_4904_5187" x1="0.343859" y1="45.2083" x2="42.3405" y2="33.5059" gradientUnits="userSpaceOnUse">
<stop stop-color="#D6A6FF"/>
<stop offset="0.292266" stop-color="#A6C9F8"/>
<stop offset="0.600346" stop-color="#99F3CE"/>
<stop offset="0.747126" stop-color="#F1ECAC"/>
<stop offset="0.972274" stop-color="#EEA5EF"/>
</linearGradient>
<linearGradient id="paint1_linear_4904_5187" x1="5.22105" y1="31.2187" x2="31.3893" y2="22.4686" gradientUnits="userSpaceOnUse">
<stop stop-color="#D6A6FF"/>
<stop offset="0.292266" stop-color="#A6C9F8"/>
<stop offset="0.600346" stop-color="#99F3CE"/>
<stop offset="0.747126" stop-color="#F1ECAC"/>
<stop offset="0.972274" stop-color="#EEA5EF"/>
</linearGradient>
</defs>
</svg>
